<svg width="42" height="42" viewBox="0 0 42 42" fill="none" xmlns="http://www.w3.org/2000/svg">
<path d="M33.2328 0.144531C31.2919 0.144531 28.3511 0.379754 25.8809 1.37945C24.0577 2.14392 22.2932 3.49645 20.9405 4.79017C19.5877 3.49645 17.8821 2.14392 16 1.37945C13.5886 0.379754 10.5891 0.144531 8.707 0.144531H5.53101V32.4876H8.707V3.32003C10.3538 3.32003 12.8829 3.55526 14.8237 4.31973C17.4704 5.37823 20.1171 8.31851 20.9405 9.37701C21.7639 8.31851 24.4105 5.43703 27.0572 4.31973C28.9981 3.55526 31.5271 3.32003 33.1739 3.32003V32.4876H36.3499V0.144531H33.1739H33.2328Z" fill="#DC3E48"/>
<path d="M20.9988 12.7916C19.5872 10.7334 16.3524 7.4991 13.7058 6.44059C12.9412 6.14657 12.0001 5.91134 11.1179 5.85254V32.5503H14.2939V10.4982C16.9994 12.1447 19.2932 15.379 20.9988 17.9077C22.7044 15.4378 24.9982 12.1447 27.7037 10.4982V32.5503H30.8797V5.85254C29.9974 5.97015 29.0564 6.14657 28.2918 6.44059C25.6452 7.4991 22.4103 10.7334 21.0576 12.7916" fill="#DC3E48"/>
<path d="M38.7589 0.153532V34.8488H26.7019C24.2905 34.8488 22.2908 35.8485 20.938 37.4363C19.6441 35.8485 17.5856 34.8488 15.1742 34.8488H3.176V0.0947266H0L0 37.9655H15.1742C17.5856 37.9655 19.3501 39.6121 19.3501 41.9055H22.526C22.526 39.6121 24.2905 37.9655 26.7019 37.9655H41.8761V0.0947266H38.7589V0.153532Z" fill="#DC3E48"/>
</svg>
