<svg fill="none" height="61" viewBox="0 0 46 61" width="46" xmlns="http://www.w3.org/2000/svg" xmlns:xlink="http://www.w3.org/1999/xlink"><clipPath id="a"><path d="m.11557.001953h45.1621v60.0004h-45.1621z"/></clipPath><g clip-path="url(#a)"><path d="m39.8661 33.6371v-12.8079l-2.8222.0137v3.4532c-.0103 5.2191-4.187 9.4747-9.3547 9.4747h-9.9069c-5.1746 0-9.4096-4.2796-9.4096-9.5056v-13.408l-2.78447-2.77419.01372 17.44069c0 5.8982 5.15405 10.9185 10.80525 10.9185h12.6502c3.0862 0 6.0079-1.502 8.0345-3.8064v3.8098h4.043v-2.8051h-1.2688z" fill="#008ab9"/><path d="m37.0988 17.3569v-10.6818l-14.4161 14.5671-17.09096-17.27614v-3.96410688l17.09096 17.32414688 17.1938-17.32414688v17.35494688z" fill="#ca007f"/><path d="m.11557 49.217h1.08018l.51094-3.1754 2.1158 3.1034 2.05063-3.1034.57611 3.1754h1.08018l-1.04932-5.2672h-.36692l-2.29068 3.5663-2.29411-3.5663h-.37721l-1.032178 5.2672zm11.38483-2.6233c0 .4046.0583.775.1714 1.111.1166.3361.2915.6379.5213.8951.2332.2606.5383.4629.919.6104.384.1474.8195.2194 1.3133.2194.3292 0 .6619-.0309 1.0048-.0891.3429-.0583.6241-.1441.8401-.2538v-.8984c-.4938.2194-1.0459.3326-1.6562.3326-.2367 0-.4561-.024-.6653-.072-.2058-.048-.4081-.1235-.5967-.2263-.1886-.1029-.3463-.2504-.4766-.4424s-.2161-.4184-.2504-.6824h4.019c.0309-.3155.0446-.5693.0446-.7579 0-.3566-.048-.6824-.144-.9807s-.2401-.5658-.4355-.8024c-.1955-.2366-.4561-.4218-.7819-.559-.3292-.1337-.7064-.2023-1.135-.2023-.3498 0-.6893.0617-1.0082.1886-.3224.1269-.6104.3018-.8642.535-.2503.2297-.4526.5246-.6035.8847-.1509.3566-.2229.7544-.2229 1.1899m1.1076-.3635c.0275-.4869.1818-.8676.4595-1.1419.2812-.2743.6584-.4115 1.1282-.4115.4218 0 .7647.1372 1.0288.4081.2675.2743.4012.6549.4012 1.1487h-3.0177zm8.1134 2.0781v2.1603h.9225v-1.2516h4.2075v1.2516h.9191v-2.1603h-.8127v-4.3619h-3.995v.264c0 .8436-.0446 1.6083-.1303 2.2941-.0858.6859-.2538 1.286-.5007 1.8038h-.6138zm1.622 0c.4047-.8504.6104-1.8895.6104-3.1206v-.3429h1.9683v3.4635zm8.7512.9087h.3875l3.3709-3.364v3.364h1.0905v-5.2706h-.3841l-3.3777 3.364v-3.364h-1.0905v5.2706zm9.1525-1.598c0 .2744.0548.5247.1646.751.1097.2229.2571.4046.4423.5418s.3875.2435.6104.3155.4492.1063.679.1063c.4218 0 .7955-.072 1.1316-.216.3326-.1441.6344-.3875.9019-.727l.1234.8264h.727v-3.3331c0-.3361-.0446-.6344-.1337-.8882-.0892-.2537-.2058-.4595-.3532-.6138-.1475-.1543-.3292-.2778-.5487-.3704-.2195-.0925-.4389-.1577-.6653-.1954-.2263-.0343-.4766-.0515-.7544-.0515-.5761 0-1.1625.1064-1.7694.3224v.9499c.4423-.2229.9944-.3361 1.6563-.3361.9978 0 1.4985.3326 1.4985.9945v.4732c-.2503-.0995-.5178-.1783-.8059-.2366-.288-.0583-.5349-.0892-.7441-.0892-.2983 0-.5726.0309-.8195.096-.2504.0652-.4801.1612-.6824.2984-.2058.1337-.3635.3189-.4801.5555-.1166.2332-.1715.5109-.1715.8299m1.1179-.1201c0-.5555.3875-.8367 1.1591-.8367.5281 0 1.0047.1338 1.4299.4012v.4355c-.168.3052-.384.5418-.6549.7202-.2709.1783-.5487.2674-.8333.2674-.7339 0-1.1008-.3292-1.1008-.9876z" fill="#ca007f"/><path d="m.448287 57.9895h4.454473v1.2516h.94987v-2.1501h-.67896v-4.3721h-1.09048v4.3721h-2.54787v-4.3721h-1.090465v5.2706zm10.184613-2.6576c0 .4046.0583.775.1714 1.111.1166.3361.2915.6378.5213.895.2332.2606.5384.463.919.6104.3841.1475.8196.2195 1.3134.2195.3292 0 .6618-.0309 1.0047-.0892s.6241-.144.8401-.2537v-.8985c-.4938.2195-1.0458.3327-1.6562.3327-.2366 0-.4561-.024-.6653-.0721-.2092-.048-.4081-.1234-.5967-.2263s-.3463-.2503-.4766-.4423c-.1303-.1921-.2161-.4184-.2504-.679h4.019c.0309-.3155.0446-.5692.0446-.7579 0-.3566-.048-.6824-.144-.9807s-.2401-.5658-.4355-.8024c-.1955-.2401-.4561-.4218-.7819-.559-.3292-.1337-.7064-.2023-1.1385-.2023-.3497 0-.6892.0652-1.0081.1886-.3224.1269-.6104.3052-.8642.535-.2503.2297-.4526.5246-.6035.8847-.1509.3566-.2229.7544-.2229 1.1899m1.1076-.3292c.0275-.4869.1818-.8676.4595-1.1419.2778-.2743.655-.4115 1.1282-.4115.4218 0 .7647.1372 1.0288.4081.2674.2743.4012.6549.4012 1.1487h-3.0177zm9.2107 2.9868h1.0905v-2.1912h2.589v2.1912h1.0905v-5.2706h-1.0905v2.1912h-2.589v-2.1912h-1.0905zm9.6668-4.3722h1.6872v4.3722h1.0905v-4.3722h1.6871v-.8984h-4.4648zm9.2553 6.3817h1.0802v-2.445c.5075.4081 1.1145.6138 1.8243.6138.3944 0 .751-.0788 1.0734-.2366.3223-.1577.5863-.3738.7955-.6412.2092-.2675.3669-.5796.4767-.9293.1097-.3498.1646-.7236.1646-1.1214s-.048-.7372-.1475-1.0596c-.096-.3258-.24-.607-.4286-.8539s-.4355-.4389-.7407-.5795-.6516-.2092-1.0425-.2092c-.9533 0-1.6906.3704-2.2084 1.1111v-.9293h-.8504v7.2801zm1.1762-3.3846v-2.1501c.1818-.2949.4253-.5246.7202-.6892.2983-.1612.6001-.2435.9155-.2435.535 0 .9328.1543 1.1968.4698.2606.3155.3909.7407.3909 1.2756 0 .2607-.0308.5041-.0891.727-.0617.2229-.1543.4218-.2778.6001-.1234.1783-.288.3189-.4972.4184-.2092.0994-.4527.1543-.7236.1577-.6446 0-1.1899-.1886-1.6357-.5692" fill="#008ab9"/></g></svg>