<svg width="33" height="42" viewBox="0 0 33 42" fill="none" xmlns="http://www.w3.org/2000/svg">
<path d="M9 24.5C9 23.672 9.675 23 10.5 23H22.5C23.325 23 24 23.672 24 24.5C24 25.328 23.325 26 22.5 26H10.5C9.675 26 9 25.328 9 24.5Z" fill="white"/>
<path d="M9 31.5C9 30.672 9.675 30 10.5 30H16.5C17.325 30 18 30.672 18 31.5C18 32.328 17.325 33 16.5 33H10.5C9.675 33 9 32.328 9 31.5Z" fill="white"/>
<path fill-rule="evenodd" clip-rule="evenodd" d="M12 0C11.595 0 11.2201 0.157545 10.9351 0.439545L0.435059 10.9395C0.165059 11.22 0 11.6025 0 12V34.5C0 38.6415 3.36 42 7.5 42H25.5C29.64 42 33 38.6415 33 34.5V7.5C33 3.3585 29.64 0 25.5 0H12ZM12 12V3.621L3.61505 12H12ZM13.5 15H3V34.5C3 36.9855 5.01 39 7.5 39H25.5C27.99 39 30 36.9855 30 34.5V7.5C30 5.0145 27.99 3 25.5 3H15V13.5C15 14.328 14.325 15 13.5 15Z" fill="white"/>
</svg>
